HIERARCHY
ROOT Hips
{
	OFFSET 0.000000 0.000000 0.000000
	CHANNELS 6 Xposition Yposition Zposition Xrotation Yrotation Zrotation
	JOINT LeftUpLeg_virtual
	{
		OFFSET 0.000000 0.000000 0.000000
		CHANNELS 3 Xrotation Yrotation Zrotation
		JOINT LeftUpLeg
		{
			OFFSET 11.394100 -6.187798 -0.413800
			CHANNELS 3 Xrotation Yrotation Zrotation
			JOINT LeftLeg
			{
				OFFSET 0.430247 -32.302673 3.732800
				CHANNELS 3 Xrotation Yrotation Zrotation
				JOINT LeftFoot
				{
					OFFSET -0.430247 -48.264931 -6.423300
					CHANNELS 3 Xrotation Yrotation Zrotation
					JOINT LeftToeBase
					{
						OFFSET 4.230900 -16.068199 23.438400
						CHANNELS 3 Xrotation Yrotation Zrotation
						JOINT LeftToe_End
						{
							OFFSET 4.510700 0.695400 19.974600
							CHANNELS 3 Xrotation Yrotation Zrotation
							End Site
							{
								OFFSET 0 0 0
							}
						}
					}
				}
			}
		}
	}
	JOINT RightUpLeg_virtual
	{
		OFFSET 0.000000 0.000000 0.000000
		CHANNELS 3 Xrotation Yrotation Zrotation
		JOINT RightUpLeg
		{
			OFFSET -11.333700 -6.187798 -0.413800
			CHANNELS 3 Xrotation Yrotation Zrotation
			JOINT RightLeg
			{
				OFFSET -0.430392 -32.302628 3.733000
				CHANNELS 3 Xrotation Yrotation Zrotation
				JOINT RightFoot
				{
					OFFSET 0.430392 -48.264973 -6.423500
					CHANNELS 3 Xrotation Yrotation Zrotation
					JOINT RightToeBase
					{
						OFFSET -4.230900 -16.068199 23.438400
						CHANNELS 3 Xrotation Yrotation Zrotation
						JOINT RightToe_End
						{
							OFFSET -4.510700 0.695400 19.974600
							CHANNELS 3 Xrotation Yrotation Zrotation
							End Site
							{
								OFFSET 0 0 0
							}
						}
					}
				}
			}
		}
	}
	JOINT Spine_virtual
	{
		OFFSET 0.000000 0.000000 0.000000
		CHANNELS 3 Xrotation Yrotation Zrotation
		JOINT Spine
		{
			OFFSET -0.002400 12.777504 0.315300
			CHANNELS 3 Xrotation Yrotation Zrotation
			JOINT Spine1
			{
				OFFSET -0.002067 5.816869 0.032633
				CHANNELS 3 Xrotation Yrotation Zrotation
				JOINT Spine1_split
				{
					OFFSET -0.002067 5.816869 0.032633
					CHANNELS 3 Xrotation Yrotation Zrotation
					JOINT Spine2
					{
						OFFSET -0.002067 5.816869 0.032633
						CHANNELS 3 Xrotation Yrotation Zrotation
						JOINT Neck_virtual
						{
							OFFSET 0.000000 0.000000 0.000000
							CHANNELS 3 Xrotation Yrotation Zrotation
							JOINT Neck
							{
								OFFSET -0.003700 21.199493 -0.826900
								CHANNELS 3 Xrotation Yrotation Zrotation
								JOINT Head
								{
									OFFSET 0.000000 20.442200 4.834800
									CHANNELS 3 Xrotation Yrotation Zrotation
									JOINT HeadTop_End
									{
										OFFSET 0.000000 34.668396 4.968400
										CHANNELS 3 Xrotation Yrotation Zrotation
										End Site
										{
											OFFSET 0 0 0
										}
									}
								}
							}
						}
						JOINT LeftShoulder_virtual
						{
							OFFSET 0.000000 0.000000 0.000000
							CHANNELS 3 Xrotation Yrotation Zrotation
							JOINT LeftShoulder
							{
								OFFSET 3.288150 8.794197 -1.372250
								CHANNELS 3 Xrotation Yrotation Zrotation
								JOINT LeftShoulder_split
								{
									OFFSET 3.288150 8.794197 -1.372250
									CHANNELS 3 Xrotation Yrotation Zrotation
									JOINT LeftArm
									{
										OFFSET 11.953299 -2.279007 -0.146200
										CHANNELS 3 Xrotation Yrotation Zrotation
										JOINT LeftForeArm
										{
											OFFSET 18.448900 0.000000 0.000000
											CHANNELS 3 Xrotation Yrotation Zrotation
											JOINT LeftHand
											{
												OFFSET 29.527798 0.000000 0.000000
												CHANNELS 3 Xrotation Yrotation Zrotation
												End Site
												{
													OFFSET 0 0 0
												}
											}
										}
									}
								}
							}
						}
						JOINT RightShoulder_virtual
						{
							OFFSET 0.000000 0.000000 0.000000
							CHANNELS 3 Xrotation Yrotation Zrotation
							JOINT RightShoulder
							{
								OFFSET -3.249400 8.794197 -1.372250
								CHANNELS 3 Xrotation Yrotation Zrotation
								JOINT RightShoulder_split
								{
									OFFSET -3.249400 8.794197 -1.372250
									CHANNELS 3 Xrotation Yrotation Zrotation
									JOINT RightArm
									{
										OFFSET -11.953299 -2.279007 -0.146200
										CHANNELS 3 Xrotation Yrotation Zrotation
										JOINT RightForeArm
										{
											OFFSET -18.448900 0.000000 0.000000
											CHANNELS 3 Xrotation Yrotation Zrotation
											JOINT RightHand
											{
												OFFSET -29.527802 0.000000 0.000000
												CHANNELS 3 Xrotation Yrotation Zrotation
												End Site
												{
													OFFSET 0 0 0
												}
											}
										}
									}
								}
							}
						}
					}
				}
			}
		}
	}
}
MOTION
Frames: 6
Frame Time: 0.03333333
-1.254595 49.781109 -19.430193 0.000000 0.000000 0.000000 70.047176 1.803488 -1.713897 -0.028672 14.313162 10.605345 12.595678 9.888200 2.095621 -28.910883 1.729139 -6.097230 -31.949767 2.586264 -10.474830 0.000000 0.000000 0.000000 70.446995 -2.450445 -1.522630 -4.832302 -4.954187 -9.229428 10.665200 0.645387 -0.067016 -18.123132 6.524870 9.602654 -66.796115 -3.941636 8.286789 0.000000 0.000000 0.000000 74.141171 0.883825 -2.424496 -1.205577 1.442122 -1.078860 1.901774 0.232137 0.377709 0.496331 -1.006080 1.229271 0.000000 0.000000 0.000000 0.786367 -0.241765 0.148096 -10.138793 -0.562232 3.324145 8.864335 7.287393 -5.761372 0.000000 0.000000 0.000000 1.079668 -0.362872 0.766435 1.540891 -1.532501 2.379994 1.493990 0.891514 -2.049509 -39.679683 -56.342538 -47.972694 -0.290671 -19.642711 0.323305 0.000000 0.000000 0.000000 0.897915 -0.049480 1.047818 1.835377 2.483807 13.957211 2.792970 5.930272 -1.368575 -58.123947 57.121757 53.785947 -0.694911 20.811858 0.995116 0.000000 0.000000 0.000000 
-1.427253 49.829338 -19.435343 0.000000 0.000000 0.000000 69.917710 1.833151 -1.644505 0.058681 14.301566 10.590129 12.699728 9.959544 2.066366 -28.819672 1.651769 -6.252636 -32.106284 2.596970 -10.344190 0.000000 0.000000 0.000000 70.452015 -2.625838 -1.379253 -5.087197 -4.769716 -9.263933 10.843075 0.731296 -0.059417 -18.355080 6.454776 9.858923 -66.336279 -3.852079 8.268745 0.000000 0.000000 0.000000 74.293552 0.947903 -2.467269 -1.089313 1.480156 -1.105755 2.017077 0.216473 0.382280 0.538145 -1.254379 1.155131 0.000000 0.000000 0.000000 0.770452 -0.244740 0.197149 -10.418044 -0.620763 3.268461 8.903117 7.292863 -5.989647 0.000000 0.000000 0.000000 1.114948 -0.354171 0.766927 1.530969 -1.476060 2.443673 1.860936 1.152067 -1.550639 -40.176764 -56.320107 -48.347395 -0.168888 -19.277661 0.183363 0.000000 0.000000 0.000000 1.005731 -0.014915 1.094373 1.746002 2.685958 13.896425 2.907573 5.807523 -1.334942 -57.541216 56.357366 52.845809 -0.687418 20.952614 1.284982 0.000000 0.000000 0.000000 
-1.515691 49.919228 -19.480619 0.000000 0.000000 0.000000 69.730945 1.781359 -1.564386 0.175595 14.065374 10.551126 12.783794 10.134604 2.208026 -28.608466 1.598984 -6.491564 -32.735652 2.655670 -10.104942 0.000000 0.000000 0.000000 70.544571 -2.790851 -1.276564 -5.506185 -4.723485 -9.197166 10.650038 0.634008 -0.083908 -18.352384 6.250040 9.974153 -66.002399 -3.778726 8.274568 0.000000 0.000000 0.000000 74.413832 0.960965 -2.429050 -0.911418 1.479382 -1.184654 2.197745 0.224722 0.400696 0.603261 -1.508849 1.119554 0.000000 0.000000 0.000000 0.782283 -0.238221 0.266871 -10.483154 -0.631436 3.206300 8.850044 7.152034 -6.071540 0.000000 0.000000 0.000000 1.235797 -0.347048 0.772936 1.538857 -1.448794 2.810087 2.188687 1.470200 -1.084910 -40.478928 -56.667757 -48.764361 0.009558 -19.434484 0.079640 0.000000 0.000000 0.000000 1.194837 0.033245 1.156209 1.538632 3.268426 13.822097 3.095744 5.724470 -1.284864 -54.953854 54.966494 49.938371 -0.722944 22.832831 1.550087 0.000000 0.000000 0.000000 
-1.563910 50.005993 -19.570063 0.000000 0.000000 0.000000 69.536769 1.761909 -1.526327 0.282679 13.729635 10.433347 12.545592 10.491156 2.484679 -28.328041 1.666532 -6.585282 -33.108632 2.766423 -9.992013 0.000000 0.000000 0.000000 70.718529 -2.907203 -1.185018 -5.984902 -4.831012 -9.036237 10.213380 0.400920 -0.139835 -18.102336 5.934348 10.030796 -65.810894 -3.712061 8.285573 0.000000 0.000000 0.000000 74.424350 0.889222 -2.238565 -0.727010 1.430026 -1.306225 2.412371 0.238614 0.420070 0.630978 -1.687994 1.137367 0.000000 0.000000 0.000000 0.829923 -0.230813 0.354063 -10.348601 -0.585969 3.128530 8.614233 6.893079 -6.016300 0.000000 0.000000 0.000000 1.416623 -0.342502 0.790038 1.562486 -1.373858 3.506770 2.458755 1.689178 -0.757006 -40.678247 -57.200816 -49.237591 0.243666 -20.181904 0.015153 0.000000 0.000000 0.000000 1.425378 0.078857 1.227796 1.218321 4.272522 13.688562 3.252222 5.747191 -1.260183 -51.155907 53.066311 45.937356 -0.799533 25.981830 1.789039 0.000000 0.000000 0.000000 
-1.613648 50.117416 -19.690088 0.000000 0.000000 0.000000 69.396949 1.788006 -1.536927 0.442420 13.451212 10.257946 11.648727 11.090769 2.817175 -27.959151 1.797060 -6.392170 -32.933150 2.845793 -10.012466 0.000000 0.000000 0.000000 70.897596 -3.000771 -1.072784 -6.509290 -5.072777 -8.837246 9.799210 0.133309 -0.216362 -17.688616 5.586513 10.179073 -65.491467 -3.640003 8.306345 0.000000 0.000000 0.000000 74.335940 0.802492 -1.975630 -0.569251 1.334668 -1.448572 2.629551 0.241945 0.423806 0.637887 -1.970639 1.150575 0.000000 0.000000 0.000000 0.911772 -0.236946 0.451830 -10.029390 -0.484756 3.016862 8.197875 6.609566 -5.865863 0.000000 0.000000 0.000000 1.633059 -0.348219 0.808942 1.591758 -1.195180 4.482620 2.581375 1.706013 -0.623960 -40.714532 -57.625732 -49.575012 0.520027 -21.434262 -0.001114 0.000000 0.000000 0.000000 1.669002 0.104632 1.305982 0.785637 5.733778 13.418811 3.451432 5.773540 -1.295581 -47.009569 50.847432 41.668979 -0.937545 29.838259 2.000217 0.000000 0.000000 0.000000 
-1.689186 50.317783 -19.780153 0.000000 0.000000 0.000000 69.354895 1.787341 -1.543651 0.533080 13.212704 10.160086 10.197549 11.534935 3.128731 -27.027820 1.897755 -6.457191 -32.742452 2.821935 -9.806643 0.000000 0.000000 0.000000 71.003983 -3.136109 -0.938307 -7.044912 -5.461392 -8.622572 9.555774 -0.117264 -0.284408 -17.217141 5.233283 10.503518 -64.820046 -3.557473 8.349689 0.000000 0.000000 0.000000 74.236950 0.723080 -1.719102 -0.467968 1.220866 -1.566263 2.831421 0.220556 0.399652 0.566765 -2.180546 1.121203 0.000000 0.000000 0.000000 1.021864 -0.260622 0.548547 -9.615892 -0.356987 2.867076 7.657346 6.317548 -5.651396 0.000000 0.000000 0.000000 1.870901 -0.364948 0.814192 1.618246 -0.943497 5.661118 2.570675 1.543829 -0.579593 -40.469752 -57.693515 -49.585582 0.831464 -23.102360 0.005327 0.000000 0.000000 0.000000 1.932956 0.110168 1.375232 0.272240 7.685234 13.005834 3.557444 5.689835 -1.363208 -43.103862 48.480188 37.714184 -1.118939 33.775825 2.195905 0.000000 0.000000 0.000000 
